<svg t="1695549532143" class="icon" viewBox="0 0 1024 1024" version="1.1" xmlns="http://www.w3.org/2000/svg" p-id="1236" width="200" height="200"><path d="M153.6 153.6h409.6a102.4 102.4 0 0 1 102.4 102.4v512H153.6A102.4 102.4 0 0 1 51.2 665.6V256a102.4 102.4 0 0 1 102.4-102.4z" fill="#3D60F6" p-id="1237"></path><path d="M665.6 358.4h141.5168a102.4 102.4 0 0 1 91.5456 56.6272l63.2832 126.5664A101.6832 101.6832 0 0 1 972.8 587.3664V665.6a102.4 102.4 0 0 1-102.4 102.4H665.6z" fill="#2A44A1" p-id="1238"></path><path d="M665.6 563.2h197.2224a20.48 20.48 0 0 0 18.3296-29.5936l-47.8208-95.744A51.2 51.2 0 0 0 787.5584 409.6H665.6z" fill="#FFFFFF" p-id="1239"></path><path d="M409.6 358.4h102.4L204.8 563.2l102.4-204.8H204.8l102.4-204.8h204.8L409.6 358.4z" fill="#FFBA40" p-id="1240"></path><path d="M819.2 768m-102.4 0a102.4 102.4 0 1 0 204.8 0 102.4 102.4 0 1 0-204.8 0Z" fill="#36C196" p-id="1241"></path><path d="M819.2 768m-25.6 0a25.6 25.6 0 1 0 51.2 0 25.6 25.6 0 1 0-51.2 0Z" fill="#FFFFFF" p-id="1242"></path><path d="M347.7504 768m-102.4 0a102.4 102.4 0 1 0 204.8 0 102.4 102.4 0 1 0-204.8 0Z" fill="#36C196" p-id="1243"></path><path d="M347.7504 768m-25.6 0a25.6 25.6 0 1 0 51.2 0 25.6 25.6 0 1 0-51.2 0Z" fill="#FFFFFF" p-id="1244"></path></svg>
